<?xml version="1.0" standalone="no"?>
<!DOCTYPE svg PUBLIC "-//W3C//DTD SVG 20010904//EN"
 "http://www.w3.org/TR/2001/REC-SVG-20010904/DTD/svg10.dtd">
<svg version="1.0" xmlns="http://www.w3.org/2000/svg"
 width="400.000000pt" height="117.000000pt" viewBox="0 0 400.000000 117.000000"
 preserveAspectRatio="xMidYMid meet">

<g transform="translate(0.000000,117.000000) scale(0.100000,-0.100000)"
fill="#000000" stroke="none">
<path d="M0 585 l0 -585 2000 0 2000 0 0 585 0 585 -2000 0 -2000 0 0 -585z
m1087 375 c37 -24 54 -29 80 -24 39 7 44 -7 9 -26 -20 -10 -26 -24 -33 -73
-11 -80 -33 -89 -33 -13 0 31 -2 56 -5 56 -19 0 -85 -43 -85 -55 0 -8 -4 -15
-10 -15 -5 0 -10 10 -10 23 0 13 -6 29 -12 36 -11 10 -8 11 13 6 18 -4 40 0
64 12 l37 20 -41 32 c-23 18 -39 37 -35 42 7 13 8 12 61 -21z m413 -489 l0
-239 25 -16 c20 -13 25 -25 25 -56 l0 -40 -360 0 -360 0 0 55 c0 42 3 55 15
55 13 0 15 29 15 198 l0 199 153 6 c171 7 329 29 415 56 31 11 60 19 65 20 4
1 7 -106 7 -238z m-754 57 c36 3 37 2 20 -11 -14 -10 -17 -21 -13 -39 6 -22 4
-25 -11 -22 -16 5 -17 -7 -17 -143 0 -145 6 -174 33 -165 6 2 12 -3 12 -12 0
-13 -12 -16 -62 -16 -60 0 -61 0 -43 20 10 11 21 17 26 15 4 -3 10 7 13 22 11
57 17 229 8 257 l-8 30 -24 -24 -23 -23 6 36 c5 35 4 37 -21 37 -25 1 -26 2
-9 15 11 7 25 11 32 9 7 -3 15 6 20 23 7 25 8 26 15 8 6 -16 14 -19 46 -17z
m1734 -65 l1 -98 37 43 c24 27 45 42 60 42 22 0 21 -3 -17 -46 l-41 -46 32
-42 c17 -22 36 -47 41 -53 7 -10 3 -13 -14 -13 -17 1 -35 15 -61 52 l-38 52 0
-52 c0 -45 -3 -52 -20 -52 -19 0 -20 7 -20 155 0 148 1 155 20 155 19 0 20 -7
20 -97z m-585 52 c27 -26 30 -41 15 -80 -8 -20 -6 -29 10 -45 13 -13 20 -33
20 -59 0 -60 -32 -81 -126 -81 l-74 0 0 145 0 145 65 0 c57 0 69 -3 90 -25z
m785 -120 c0 -138 -1 -145 -20 -145 -19 0 -20 7 -20 145 0 138 1 145 20 145
19 0 20 -7 20 -145z m-560 50 c37 -19 50 -43 50 -95 0 -50 -22 -85 -61 -99
-98 -34 -181 82 -118 163 36 46 80 56 129 31z m258 -20 c24 -29 31 -100 11
-137 -15 -27 -71 -49 -108 -42 -69 14 -105 111 -61 167 13 16 32 33 44 38 35
14 89 2 114 -26z m517 10 c22 -22 25 -32 25 -105 0 -64 -3 -80 -15 -80 -11 0
-15 13 -16 58 -2 96 -8 107 -59 107 l-45 0 -3 -82 c-3 -75 -5 -83 -22 -83 -19
0 -20 7 -20 101 0 100 0 101 23 96 12 -3 31 -1 42 3 36 15 65 10 90 -15z m219
14 c32 -15 46 -56 46 -135 0 -57 -2 -64 -20 -64 -18 0 -20 7 -20 73 0 82 -9
97 -55 97 -46 0 -55 -15 -55 -97 0 -66 -2 -73 -20 -73 -19 0 -20 7 -20 101 0
100 0 101 23 96 12 -3 31 -1 42 3 28 12 50 12 79 -1z"/>
<path d="M880 515 c0 -16 6 -25 15 -25 9 0 15 9 15 25 0 16 -6 25 -15 25 -9 0
-15 -9 -15 -25z"/>
<path d="M940 515 c0 -16 6 -25 15 -25 9 0 15 9 15 25 0 16 -6 25 -15 25 -9 0
-15 -9 -15 -25z"/>
<path d="M990 515 c0 -18 5 -25 20 -25 15 0 20 7 20 25 0 18 -5 25 -20 25 -15
0 -20 -7 -20 -25z"/>
<path d="M1050 515 c0 -16 6 -25 15 -25 9 0 15 9 15 25 0 16 -6 25 -15 25 -9
0 -15 -9 -15 -25z"/>
<path d="M1110 515 c0 -16 6 -25 15 -25 9 0 15 9 15 25 0 16 -6 25 -15 25 -9
0 -15 -9 -15 -25z"/>
<path d="M1160 515 c0 -18 5 -25 20 -25 15 0 20 7 20 25 0 18 -5 25 -20 25
-15 0 -20 -7 -20 -25z"/>
<path d="M880 430 c0 -20 5 -30 15 -30 10 0 15 10 15 30 0 20 -5 30 -15 30
-10 0 -15 -10 -15 -30z"/>
<path d="M940 430 c0 -20 5 -30 15 -30 10 0 15 10 15 30 0 20 -5 30 -15 30
-10 0 -15 -10 -15 -30z"/>
<path d="M990 431 c0 -25 4 -31 21 -31 16 0 20 5 17 27 -2 17 -10 29 -20 31
-14 3 -18 -3 -18 -27z"/>
<path d="M1050 430 c0 -20 5 -30 15 -30 10 0 15 10 15 30 0 20 -5 30 -15 30
-10 0 -15 -10 -15 -30z"/>
<path d="M1110 430 c0 -20 5 -30 15 -30 10 0 15 10 15 30 0 20 -5 30 -15 30
-10 0 -15 -10 -15 -30z"/>
<path d="M1160 430 c0 -23 4 -30 20 -30 16 0 20 7 20 30 0 23 -4 30 -20 30
-16 0 -20 -7 -20 -30z"/>
<path d="M1220 430 c0 -20 5 -30 15 -30 10 0 15 10 15 30 0 20 -5 30 -15 30
-10 0 -15 -10 -15 -30z"/>
<path d="M1280 430 c0 -20 5 -30 15 -30 10 0 15 10 15 30 0 20 -5 30 -15 30
-10 0 -15 -10 -15 -30z"/>
<path d="M880 345 c0 -16 6 -25 15 -25 9 0 15 9 15 25 0 16 -6 25 -15 25 -9 0
-15 -9 -15 -25z"/>
<path d="M940 345 c0 -16 6 -25 15 -25 9 0 15 9 15 25 0 16 -6 25 -15 25 -9 0
-15 -9 -15 -25z"/>
<path d="M990 345 c0 -18 5 -25 20 -25 15 0 20 7 20 25 0 18 -5 25 -20 25 -15
0 -20 -7 -20 -25z"/>
<path d="M1050 345 c0 -16 6 -25 15 -25 9 0 15 9 15 25 0 16 -6 25 -15 25 -9
0 -15 -9 -15 -25z"/>
<path d="M1110 345 c0 -16 6 -25 15 -25 9 0 15 9 15 25 0 16 -6 25 -15 25 -9
0 -15 -9 -15 -25z"/>
<path d="M1160 345 c0 -18 5 -25 20 -25 15 0 20 7 20 25 0 18 -5 25 -20 25
-15 0 -20 -7 -20 -25z"/>
<path d="M1220 345 c0 -16 6 -25 15 -25 9 0 15 9 15 25 0 16 -6 25 -15 25 -9
0 -15 -9 -15 -25z"/>
<path d="M1280 345 c0 -16 6 -25 15 -25 9 0 15 9 15 25 0 16 -6 25 -15 25 -9
0 -15 -9 -15 -25z"/>
<path d="M1330 345 c0 -18 5 -25 20 -25 15 0 20 7 20 25 0 18 -5 25 -20 25
-15 0 -20 -7 -20 -25z"/>
<path d="M880 255 c0 -16 6 -25 15 -25 9 0 15 9 15 25 0 16 -6 25 -15 25 -9 0
-15 -9 -15 -25z"/>
<path d="M940 255 c0 -16 6 -25 15 -25 9 0 15 9 15 25 0 16 -6 25 -15 25 -9 0
-15 -9 -15 -25z"/>
<path d="M990 255 c0 -18 5 -25 20 -25 15 0 20 7 20 25 0 18 -5 25 -20 25 -15
0 -20 -7 -20 -25z"/>
<path d="M1050 255 c0 -16 6 -25 15 -25 9 0 15 9 15 25 0 16 -6 25 -15 25 -9
0 -15 -9 -15 -25z"/>
<path d="M1110 255 c0 -16 6 -25 15 -25 9 0 15 9 15 25 0 16 -6 25 -15 25 -9
0 -15 -9 -15 -25z"/>
<path d="M1160 255 c0 -18 5 -25 20 -25 15 0 20 7 20 25 0 18 -5 25 -20 25
-15 0 -20 -7 -20 -25z"/>
<path d="M1220 255 c0 -16 6 -25 15 -25 9 0 15 9 15 25 0 16 -6 25 -15 25 -9
0 -15 -9 -15 -25z"/>
<path d="M1280 255 c0 -16 6 -25 15 -25 9 0 15 9 15 25 0 16 -6 25 -15 25 -9
0 -15 -9 -15 -25z"/>
<path d="M1330 255 c0 -18 5 -25 20 -25 15 0 20 7 20 25 0 18 -5 25 -20 25
-15 0 -20 -7 -20 -25z"/>
<path d="M1390 255 c0 -16 6 -25 15 -25 9 0 15 9 15 25 0 16 -6 25 -15 25 -9
0 -15 -9 -15 -25z"/>
<path d="M1780 465 l0 -45 40 0 c42 0 66 24 54 55 -7 18 -44 35 -75 35 -16 0
-19 -7 -19 -45z"/>
<path d="M1780 335 l0 -45 48 0 c52 0 72 12 72 45 0 33 -20 45 -72 45 l-48 0
0 -45z"/>
<path d="M2027 402 c-23 -25 -22 -85 1 -105 23 -21 66 -22 86 -1 19 18 22 94
4 112 -18 18 -73 14 -91 -6z"/>
<path d="M2257 402 c-37 -41 -9 -122 41 -122 35 0 49 10 61 42 10 27 5 64 -12
86 -14 18 -71 15 -90 -6z"/>
</g>
</svg>
